<svg width="19" height="15" viewBox="0 0 19 15" fill="none" xmlns="http://www.w3.org/2000/svg">
<path d="M18.3359 13.1289L1.98438 0.359375C1.90234 0.304688 1.79297 0.277344 1.71094 0.277344C1.54688 0.277344 1.4375 0.332031 1.35547 0.414062L1.08203 0.769531C1.02734 0.851562 0.972656 0.933594 0.972656 1.04297C0.972656 1.17969 1.05469 1.31641 1.16406 1.37109L17.5156 14.168C17.5703 14.2227 17.6797 14.25 17.7617 14.25C17.9258 14.25 18.0352 14.1953 18.1172 14.0859L18.3906 13.7578C18.4453 13.6758 18.5 13.5938 18.5 13.4844C18.5 13.3477 18.418 13.2109 18.3359 13.1289ZM9.09375 4.26953L12.7852 7.14062C12.7305 5.5 11.3906 4.1875 9.75 4.1875C9.53125 4.21484 9.3125 4.21484 9.09375 4.26953ZM10.3789 10.2578L6.6875 7.38672C6.74219 9.02734 8.08203 10.3125 9.75 10.3125C9.94141 10.3125 10.1602 10.3125 10.3789 10.2578ZM9.75 3.3125C12.4297 3.3125 14.918 4.81641 16.2305 7.25C15.9023 7.87891 15.5195 8.42578 15.0273 8.91797L16.0664 9.71094C16.6406 9.10938 17.1328 8.42578 17.5156 7.66016C17.5703 7.55078 17.625 7.41406 17.625 7.27734C17.625 7.11328 17.5703 6.97656 17.5156 6.86719C16.0391 3.96875 13.0859 2 9.75 2C8.73828 2 7.78125 2.19141 6.87891 2.51953L8.13672 3.53125C8.65625 3.39453 9.20312 3.3125 9.75 3.3125ZM9.75 11.1875C7.04297 11.1875 4.55469 9.68359 3.24219 7.25C3.57031 6.64844 3.95312 6.10156 4.44531 5.60938L3.40625 4.81641C2.83203 5.41797 2.33984 6.10156 1.95703 6.86719C1.90234 6.97656 1.875 7.11328 1.875 7.25C1.875 7.41406 1.90234 7.55078 1.95703 7.66016C3.43359 10.5586 6.38672 12.5 9.75 12.5C10.7344 12.5 11.6914 12.3086 12.5938 12.0078L11.3359 10.9961C10.8164 11.1328 10.2695 11.1875 9.75 11.1875Z" fill="#57C3E6"/>
</svg>
